<svg width="296" height="82" viewBox="0 0 296 82" fill="none" xmlns="http://www.w3.org/2000/svg">
<path d="M66.472 22.464V81H46.924V75.168C43.108 79.704 37.348 81.972 29.644 81.972C24.316 81.972 19.456 80.748 15.064 78.3C10.744 75.78 7.288 72.216 4.696 67.608C2.176 63 0.916 57.672 0.916 51.624C0.916 45.576 2.176 40.284 4.696 35.748C7.288 31.14 10.744 27.612 15.064 25.164C19.456 22.716 24.316 21.492 29.644 21.492C36.556 21.492 41.992 23.508 45.952 27.54V22.464H66.472ZM33.964 65.664C37.564 65.664 40.516 64.44 42.82 61.992C45.124 59.472 46.276 56.016 46.276 51.624C46.276 47.304 45.124 43.92 42.82 41.472C40.516 39.024 37.564 37.8 33.964 37.8C30.364 37.8 27.412 39.024 25.108 41.472C22.804 43.92 21.652 47.304 21.652 51.624C21.652 56.016 22.804 59.472 25.108 61.992C27.412 64.44 30.364 65.664 33.964 65.664ZM102.47 81.972C95.2698 81.972 89.6538 80.136 85.6218 76.464C81.6618 72.72 79.6818 67.392 79.6818 60.48V0.863995H100.202V59.4C100.202 61.56 100.742 63.216 101.822 64.368C102.974 65.52 104.558 66.096 106.574 66.096C108.23 66.096 109.778 65.736 111.218 65.016L112.082 80.46C108.986 81.468 105.782 81.972 102.47 81.972ZM195.691 21.492C202.891 21.492 208.615 23.652 212.863 27.972C217.183 32.292 219.343 38.808 219.343 47.52V81H198.823V50.868C198.823 46.764 198.031 43.74 196.447 41.796C194.935 39.852 192.775 38.88 189.967 38.88C186.871 38.88 184.387 39.96 182.515 42.12C180.643 44.28 179.707 47.556 179.707 51.948V81H159.187V50.868C159.187 42.876 156.235 38.88 150.331 38.88C147.163 38.88 144.643 39.96 142.771 42.12C140.899 44.28 139.963 47.556 139.963 51.948V81H119.443V22.464H138.991V28.62C141.151 26.244 143.707 24.48 146.659 23.328C149.683 22.104 152.959 21.492 156.487 21.492C160.591 21.492 164.263 22.248 167.503 23.76C170.743 25.272 173.371 27.576 175.387 30.672C177.691 27.72 180.607 25.452 184.135 23.868C187.663 22.284 191.515 21.492 195.691 21.492ZM295.023 22.464V81H275.475V75.168C271.659 79.704 265.899 81.972 258.195 81.972C252.867 81.972 248.007 80.748 243.615 78.3C239.295 75.78 235.839 72.216 233.247 67.608C230.727 63 229.467 57.672 229.467 51.624C229.467 45.576 230.727 40.284 233.247 35.748C235.839 31.14 239.295 27.612 243.615 25.164C248.007 22.716 252.867 21.492 258.195 21.492C265.107 21.492 270.543 23.508 274.503 27.54V22.464H295.023ZM262.515 65.664C266.115 65.664 269.067 64.44 271.371 61.992C273.675 59.472 274.827 56.016 274.827 51.624C274.827 47.304 273.675 43.92 271.371 41.472C269.067 39.024 266.115 37.8 262.515 37.8C258.915 37.8 255.963 39.024 253.659 41.472C251.355 43.92 250.203 47.304 250.203 51.624C250.203 56.016 251.355 59.472 253.659 61.992C255.963 64.44 258.915 65.664 262.515 65.664Z" fill="#181818"/>
</svg>
